  0
SECTION
  2
HEADER
  9
$ACADVER
  1
AC1009
  9
$DWGCODEPAGE
  3
ansi_1252
  9
$INSBASE
 10
0.0
 20
0.0
 30
0.0
  9
$EXTMIN
 10
-93.0
 20
-61.5
 30
0.0
  9
$EXTMAX
 10
93.0
 20
61.5
 30
0.0
  9
$LIMMIN
 10
0.0
 20
0.0
  9
$LIMMAX
 10
420.0
 20
297.0
  9
$ORTHOMODE
 70
     0
  9
$REGENMODE
 70
     1
  9
$FILLMODE
 70
     1
  9
$QTEXTMODE
 70
     0
  9
$MIRRTEXT
 70
     1
  9
$DRAGMODE
 70
     2
  9
$LTSCALE
 40
1.0
  9
$OSMODE
 70
    37
  9
$ATTMODE
 70
     1
  9
$TEXTSIZE
 40
6.35
  9
$TRACEWID
 40
1.0
  9
$TEXTSTYLE
  7
STANDARD
  9
$CLAYER
  8
0
  9
$CELTYPE
  6
BYLAYER
  9
$CECOLOR
 62
   256
  9
$DIMSCALE
 40
1.0
  9
$DIMASZ
 40
5.9944
  9
$DIMEXO
 40
0.9906
  9
$DIMDLI
 40
3.75
  9
$DIMRND
 40
0.0
  9
$DIMDLE
 40
0.0
  9
$DIMEXE
 40
0.9906
  9
$DIMTP
 40
0.0
  9
$DIMTM
 40
0.0
  9
$DIMTXT
 40
6.35
  9
$DIMCEN
 40
2.5
  9
$DIMTSZ
 40
0.0
  9
$DIMTOL
 70
     0
  9
$DIMLIM
 70
     0
  9
$DIMTIH
 70
     1
  9
$DIMTOH
 70
     1
  9
$DIMSE1
 70
     0
  9
$DIMSE2
 70
     0
  9
$DIMTAD
 70
     1
  9
$DIMZIN
 70
     0
  9
$DIMBLK
  1

  9
$DIMASO
 70
     1
  9
$DIMSHO
 70
     1
  9
$DIMPOST
  1

  9
$DIMAPOST
  1

  9
$DIMALT
 70
     0
  9
$DIMALTD
 70
     3
  9
$DIMALTF
 40
0.0393700787
  9
$DIMLFAC
 40
1.0
  9
$DIMTOFL
 70
     1
  9
$DIMTVP
 40
0.0
  9
$DIMTIX
 70
     0
  9
$DIMSOXD
 70
     0
  9
$DIMSAH
 70
     0
  9
$DIMBLK1
  1

  9
$DIMBLK2
  1

  9
$DIMSTYLE
  2
ISO-25
  9
$DIMCLRD
 70
     0
  9
$DIMCLRE
 70
     0
  9
$DIMCLRT
 70
     0
  9
$DIMTFAC
 40
1.0
  9
$DIMGAP
 40
1.524
  9
$LUNITS
 70
     2
  9
$LUPREC
 70
     2
  9
$SKETCHINC
 40
1.0
  9
$FILLETRAD
 40
10.0
  9
$AUNITS
 70
     0
  9
$AUPREC
 70
     2
  9
$MENU
  1
.
  9
$ELEVATION
 40
0.0
  9
$PELEVATION
 40
0.0
  9
$THICKNESS
 40
0.0
  9
$LIMCHECK
 70
     0
  9
$CHAMFERA
 40
0.0
  9
$CHAMFERB
 40
0.0
  9
$SKPOLY
 70
     0
  9
$TDCREATE
 40
2458273.566685208
  9
$TDUPDATE
 40
2458273.566736701
  9
$TDINDWG
 40
0.0000000116
  9
$TDUSRTIMER
 40
0.0000000116
  9
$USRTIMER
 70
     1
  9
$ANGBASE
 50
0.0
  9
$ANGDIR
 70
     0
  9
$PDMODE
 70
     0
  9
$PDSIZE
 40
-1.0
  9
$PLINEWID
 40
0.0
  9
$COORDS
 70
     1
  9
$SPLFRAME
 70
     0
  9
$SPLINETYPE
 70
     6
  9
$SPLINESEGS
 70
     8
  9
$ATTDIA
 70
     0
  9
$ATTREQ
 70
     1
  9
$HANDLING
 70
     1
  9
$HANDSEED
  5
20D
  9
$SURFTAB1
 70
     6
  9
$SURFTAB2
 70
     6
  9
$SURFTYPE
 70
     6
  9
$SURFU
 70
     6
  9
$SURFV
 70
     6
  9
$UCSNAME
  2

  9
$UCSORG
 10
0.0
 20
0.0
 30
0.0
  9
$UCSXDIR
 10
1.0
 20
0.0
 30
0.0
  9
$UCSYDIR
 10
0.0
 20
1.0
 30
0.0
  9
$PUCSNAME
  2

  9
$PUCSORG
 10
0.0
 20
0.0
 30
0.0
  9
$PUCSXDIR
 10
1.0
 20
0.0
 30
0.0
  9
$PUCSYDIR
 10
0.0
 20
1.0
 30
0.0
  9
$USERI1
 70
     0
  9
$USERI2
 70
     0
  9
$USERI3
 70
     0
  9
$USERI4
 70
     0
  9
$USERI5
 70
     0
  9
$USERR1
 40
0.0
  9
$USERR2
 40
0.0
  9
$USERR3
 40
0.0
  9
$USERR4
 40
0.0
  9
$USERR5
 40
0.0
  9
$WORLDVIEW
 70
     1
  9
$SHADEDGE
 70
     3
  9
$SHADEDIF
 70
    70
  9
$TILEMODE
 70
     1
  9
$MAXACTVP
 70
    64
  9
$PLIMCHECK
 70
     0
  9
$PEXTMIN
 10
1.0000000000E+20
 20
1.0000000000E+20
 30
1.0000000000E+20
  9
$PEXTMAX
 10
-1.0000000000E+20
 20
-1.0000000000E+20
 30
-1.0000000000E+20
  9
$PLIMMIN
 10
0.0
 20
0.0
  9
$PLIMMAX
 10
420.0
 20
297.0
  9
$UNITMODE
 70
     0
  9
$VISRETAIN
 70
     1
  9
$PLINEGEN
 70
     0
  9
$PSLTSCALE
 70
     1
  0
ENDSEC
  0
SECTION
  2
TABLES
  0
TABLE
  2
VPORT
 70
     1
  0
VPORT
  2
*ACTIVE
 70
     0
 10
0.0
 20
0.0
 11
1.0
 21
1.0
 12
0.0
 22
0.0
 13
0.0
 23
0.0
 14
10.0
 24
10.0
 15
10.0
 25
10.0
 16
0.0
 26
0.0
 36
1.0
 17
0.0
 27
0.0
 37
0.0
 40
125.46
 41
1.512195122
 42
50.0
 43
0.0
 44
0.0
 50
0.0
 51
0.0
 71
     0
 72
   100
 73
     1
 74
     3
 75
     0
 76
     0
 77
     0
 78
     0
  0
ENDTAB
  0
TABLE
  2
LTYPE
 70
     6
  0
LTYPE
  2
CONTINUOUS
 70
     0
  3
Solid line
 72
    65
 73
     0
 40
0.0
  0
LTYPE
  2
HIDDEN
 70
     0
  3
Hidden __ __ __ __ __ __ __ __ __ __ __ __ __ __
 72
    65
 73
     2
 40
1.905
 49
1.27
 49
-0.635
  0
LTYPE
  2
PHANTOM
 70
     0
  3
Phantom ______  __  __  ______  __  __  ______
 72
    65
 73
     6
 40
12.7
 49
6.35
 49
-1.27
 49
1.27
 49
-1.27
 49
1.27
 49
-1.27
  0
LTYPE
  2
CENTER
 70
     0
  3
Center ____ _ ____ _ ____ _ ____ _ ____ _ ____
 72
    65
 73
     4
 40
10.16
 49
6.35
 49
-1.27
 49
1.27
 49
-1.27
  0
LTYPE
  2
CENTERX2
 70
     0
  3
Center (2x) ________  __  ________  __  _____
 72
    65
 73
     4
 40
20.32
 49
12.7
 49
-2.54
 49
2.54
 49
-2.54
  0
LTYPE
  2
DOT2
 70
     0
  3
Dot (.5x) ........................................
 72
    65
 73
     2
 40
0.635
 49
0.0
 49
-0.635
  0
ENDTAB
  0
TABLE
  2
LAYER
 70
     1
  0
LAYER
  2
0
 70
     0
 62
     7
  6
CONTINUOUS
  0
ENDTAB
  0
TABLE
  2
STYLE
 70
     1
  0
STYLE
  2
STANDARD
 70
     0
 40
0.0
 41
1.0
 50
0.0
 71
     0
 42
6.35
  3
txt
  4

  0
ENDTAB
  0
TABLE
  2
VIEW
 70
     0
  0
ENDTAB
  0
TABLE
  2
UCS
 70
     0
  0
ENDTAB
  0
TABLE
  2
APPID
 70
     1
  0
APPID
  2
ACAD
 70
     0
  0
ENDTAB
  0
TABLE
  2
DIMSTYLE
 70
     1
  0
DIMSTYLE
  2
ISO-25
 70
     0
  3

  4

  5

  6

  7

 40
1.0
 41
2.5
 42
0.625
 43
3.75
 44
1.25
 45
0.0
 46
0.0
 47
0.0
 48
0.0
140
2.5
141
2.5
142
0.0
143
0.0393700787
144
1.0
145
0.0
146
1.0
147
0.625
 71
     0
 72
     0
 73
     0
 74
     0
 75
     0
 76
     0
 77
     1
 78
     8
170
     0
171
     3
172
     1
173
     0
174
     0
175
     0
176
     0
177
     0
178
     0
  0
ENDTAB
  0
ENDSEC
  0
SECTION
  2
BLOCKS
  0
BLOCK
  8
0
  2
$MODEL_SPACE
 70
     0
 10
0.0
 20
0.0
 30
0.0
  3
$MODEL_SPACE
  1

  0
ENDBLK
  5
21
  8
0
  0
BLOCK
 67
     1
  8
0
  2
$PAPER_SPACE
 70
     0
 10
0.0
 20
0.0
 30
0.0
  3
$PAPER_SPACE
  1

  0
ENDBLK
  5
1D
 67
     1
  8
0
  0
ENDSEC
  0
SECTION
  2
ENTITIES
  0
CIRCLE
  5
73
  8
0
  6
CONTINUOUS
 62
     7
 10
0.0
 20
0.0
 30
0.0
 40
1.397
  0
CIRCLE
  5
A4
  8
0
  6
CONTINUOUS
 62
     7
 10
-49.5
 20
18.0
 30
0.0
 40
1.500000000000007
  0
CIRCLE
  5
AD
  8
0
  6
CONTINUOUS
 62
     7
 10
-76.5
 20
18.0
 30
0.0
 40
1.5
  0
CIRCLE
  5
AE
  8
0
  6
CONTINUOUS
 62
     7
 10
-76.5
 20
45.0
 30
0.0
 40
1.5
  0
CIRCLE
  5
AF
  8
0
  6
CONTINUOUS
 62
     7
 10
-49.5
 20
45.0
 30
0.0
 40
1.500000000000007
  0
CIRCLE
  5
C0
  8
0
  6
CONTINUOUS
 62
     7
 10
49.5
 20
45.0
 30
0.0
 40
1.500000000000014
  0
CIRCLE
  5
C1
  8
0
  6
CONTINUOUS
 62
     7
 10
49.5
 20
18.0
 30
0.0
 40
1.499999999999993
  0
CIRCLE
  5
C2
  8
0
  6
CONTINUOUS
 62
     7
 10
-13.5
 20
-18.0
 30
0.0
 40
1.499999999999998
  0
CIRCLE
  5
C3
  8
0
  6
CONTINUOUS
 62
     7
 10
13.5
 20
-18.0
 30
0.0
 40
1.499999999999996
  0
CIRCLE
  5
C4
  8
0
  6
CONTINUOUS
 62
     7
 10
13.5
 20
-45.0
 30
0.0
 40
1.499999999999995
  0
CIRCLE
  5
C5
  8
0
  6
CONTINUOUS
 62
     7
 10
49.5
 20
-45.0
 30
0.0
 40
1.499999999999993
  0
CIRCLE
  5
C6
  8
0
  6
CONTINUOUS
 62
     7
 10
49.5
 20
-18.0
 30
0.0
 40
1.500000000000007
  0
CIRCLE
  5
C7
  8
0
  6
CONTINUOUS
 62
     7
 10
76.5
 20
-18.0
 30
0.0
 40
1.5
  0
CIRCLE
  5
C8
  8
0
  6
CONTINUOUS
 62
     7
 10
76.5
 20
-45.0
 30
0.0
 40
1.5
  0
CIRCLE
  5
D9
  8
0
  6
CONTINUOUS
 62
     7
 10
76.5
 20
18.0
 30
0.0
 40
1.5
  0
CIRCLE
  5
DA
  8
0
  6
CONTINUOUS
 62
     7
 10
76.5
 20
45.0
 30
0.0
 40
1.5
  0
CIRCLE
  5
DB
  8
0
  6
CONTINUOUS
 62
     7
 10
-76.5
 20
-45.0
 30
0.0
 40
1.499999999999986
  0
CIRCLE
  5
DC
  8
0
  6
CONTINUOUS
 62
     7
 10
-76.5
 20
-18.0
 30
0.0
 40
1.5
  0
CIRCLE
  5
DD
  8
0
  6
CONTINUOUS
 62
     7
 10
-49.5
 20
-18.0
 30
0.0
 40
1.5
  0
CIRCLE
  5
DE
  8
0
  6
CONTINUOUS
 62
     7
 10
-49.5
 20
-45.0
 30
0.0
 40
1.5
  0
CIRCLE
  5
EF
  8
0
  6
CONTINUOUS
 62
     7
 10
13.5
 20
18.0
 30
0.0
 40
1.499999999999998
  0
CIRCLE
  5
F0
  8
0
  6
CONTINUOUS
 62
     7
 10
-13.5
 20
-45.0
 30
0.0
 40
1.499999999999996
  0
CIRCLE
  5
F1
  8
0
  6
CONTINUOUS
 62
     7
 10
13.5
 20
45.0
 30
0.0
 40
1.499999999999998
  0
CIRCLE
  5
F2
  8
0
  6
CONTINUOUS
 62
     7
 10
-13.5
 20
45.0
 30
0.0
 40
1.499999999999998
  0
CIRCLE
  5
F3
  8
0
  6
CONTINUOUS
 62
     7
 10
-13.5
 20
18.0
 30
0.0
 40
1.499999999999996
  0
CIRCLE
  5
F6
  8
0
  6
CONTINUOUS
 62
     7
 10
31.5
 20
-51.5
 30
0.0
 40
1.397000000000006
  0
CIRCLE
  5
F7
  8
0
  6
CONTINUOUS
 62
     7
 10
31.5
 20
51.5
 30
0.0
 40
1.396999999999991
  0
CIRCLE
  5
F8
  8
0
  6
CONTINUOUS
 62
     7
 10
-31.5
 20
51.5
 30
0.0
 40
1.396999999999991
  0
CIRCLE
  5
F9
  8
0
  6
CONTINUOUS
 62
     7
 10
-76.5
 20
18.0
 30
0.0
 40
0.5
  0
CIRCLE
  5
106
  8
0
  6
CONTINUOUS
 62
     7
 10
-76.5
 20
45.0
 30
0.0
 40
0.5
  0
CIRCLE
  5
107
  8
0
  6
CONTINUOUS
 62
     7
 10
-49.5
 20
45.0
 30
0.0
 40
0.5000000000000071
  0
CIRCLE
  5
108
  8
0
  6
CONTINUOUS
 62
     7
 10
-49.5
 20
18.0
 30
0.0
 40
0.4999999999999929
  0
CIRCLE
  5
118
  8
0
  6
CONTINUOUS
 62
     7
 10
49.5
 20
45.0
 30
0.0
 40
0.5000000000000071
  0
CIRCLE
  5
11C
  8
0
  6
CONTINUOUS
 62
     7
 10
49.5
 20
18.0
 30
0.0
 40
0.4999999999999929
  0
CIRCLE
  5
11D
  8
0
  6
CONTINUOUS
 62
     7
 10
-13.5
 20
-18.0
 30
0.0
 40
0.4999999999999982
  0
CIRCLE
  5
11E
  8
0
  6
CONTINUOUS
 62
     7
 10
13.5
 20
-18.0
 30
0.0
 40
0.4999999999999964
  0
CIRCLE
  5
11F
  8
0
  6
CONTINUOUS
 62
     7
 10
13.5
 20
-45.0
 30
0.0
 40
0.4999999999999929
  0
CIRCLE
  5
12C
  8
0
  6
CONTINUOUS
 62
     7
 10
49.5
 20
-45.0
 30
0.0
 40
0.4999999999999858
  0
CIRCLE
  5
12D
  8
0
  6
CONTINUOUS
 62
     7
 10
49.5
 20
-18.0
 30
0.0
 40
0.4999999999999929
  0
CIRCLE
  5
12E
  8
0
  6
CONTINUOUS
 62
     7
 10
76.5
 20
-18.0
 30
0.0
 40
0.5
  0
CIRCLE
  5
12F
  8
0
  6
CONTINUOUS
 62
     7
 10
76.5
 20
-45.0
 30
0.0
 40
0.5
  0
CIRCLE
  5
142
  8
0
  6
CONTINUOUS
 62
     7
 10
76.5
 20
18.0
 30
0.0
 40
0.5
  0
CIRCLE
  5
143
  8
0
  6
CONTINUOUS
 62
     7
 10
76.5
 20
45.0
 30
0.0
 40
0.5
  0
CIRCLE
  5
144
  8
0
  6
CONTINUOUS
 62
     7
 10
-76.5
 20
-45.0
 30
0.0
 40
0.4999999999999858
  0
CIRCLE
  5
14B
  8
0
  6
CONTINUOUS
 62
     7
 10
-76.5
 20
-18.0
 30
0.0
 40
0.5
  0
CIRCLE
  5
14F
  8
0
  6
CONTINUOUS
 62
     7
 10
-49.5
 20
-18.0
 30
0.0
 40
0.5
  0
CIRCLE
  5
150
  8
0
  6
CONTINUOUS
 62
     7
 10
-13.5
 20
-45.0
 30
0.0
 40
0.4999999999999911
  0
CIRCLE
  5
151
  8
0
  6
CONTINUOUS
 62
     7
 10
-49.5
 20
-45.0
 30
0.0
 40
0.4999999999999929
  0
CIRCLE
  5
152
  8
0
  6
CONTINUOUS
 62
     7
 10
-13.5
 20
45.0
 30
0.0
 40
0.4999999999999929
  0
CIRCLE
  5
156
  8
0
  6
CONTINUOUS
 62
     7
 10
13.5
 20
18.0
 30
0.0
 40
0.4999999999999982
  0
CIRCLE
  5
157
  8
0
  6
CONTINUOUS
 62
     7
 10
-13.5
 20
18.0
 30
0.0
 40
0.4999999999999982
  0
CIRCLE
  5
158
  8
0
  6
CONTINUOUS
 62
     7
 10
13.5
 20
45.0
 30
0.0
 40
0.5000000000000053
  0
LINE
  5
159
  8
0
  6
CONTINUOUS
 62
     7
 10
-0.5
 20
-6.5
 30
0.0
 11
0.5
 21
-6.5
 31
0.0
  0
LINE
  5
15A
  8
0
  6
CONTINUOUS
 62
     7
 10
-0.5
 20
-6.5
 30
0.0
 11
-0.5
 21
-26.0227744249
 31
0.0
  0
LINE
  5
15B
  8
0
  6
CONTINUOUS
 62
     7
 10
-25.0
 20
-31.0
 30
0.0
 11
-5.4772255751
 21
-31.0
 31
0.0
  0
LINE
  5
15C
  8
0
  6
CONTINUOUS
 62
     7
 10
-25.0
 20
-32.0
 30
0.0
 11
-25.0
 21
-31.0
 31
0.0
  0
LINE
  5
15D
  8
0
  6
CONTINUOUS
 62
     7
 10
-25.0
 20
-32.0
 30
0.0
 11
-5.4772255751
 21
-32.0
 31
0.0
  0
LINE
  5
15E
  8
0
  6
CONTINUOUS
 62
     7
 10
-0.5
 20
-36.9772255751
 30
0.0
 11
-0.5
 21
-56.5
 31
0.0
  0
LINE
  5
15F
  8
0
  6
CONTINUOUS
 62
     7
 10
0.5
 20
-56.5
 30
0.0
 11
-0.5
 21
-56.5
 31
0.0
  0
LINE
  5
160
  8
0
  6
CONTINUOUS
 62
     7
 10
0.5
 20
-36.9772255751
 30
0.0
 11
0.5
 21
-56.5
 31
0.0
  0
LINE
  5
161
  8
0
  6
CONTINUOUS
 62
     7
 10
5.4772255751
 20
-32.0
 30
0.0
 11
25.0
 21
-32.0
 31
0.0
  0
LINE
  5
162
  8
0
  6
CONTINUOUS
 62
     7
 10
25.0
 20
-31.0
 30
0.0
 11
25.0
 21
-32.0
 31
0.0
  0
LINE
  5
163
  8
0
  6
CONTINUOUS
 62
     7
 10
5.4772255751
 20
-31.0
 30
0.0
 11
25.0
 21
-31.0
 31
0.0
  0
LINE
  5
164
  8
0
  6
CONTINUOUS
 62
     7
 10
0.5
 20
-6.5
 30
0.0
 11
0.5
 21
-26.0227744249
 31
0.0
  0
LINE
  5
165
  8
0
  6
CONTINUOUS
 62
     7
 10
62.5
 20
56.5
 30
0.0
 11
63.5
 21
56.5
 31
0.0
  0
LINE
  5
166
  8
0
  6
CONTINUOUS
 62
     7
 10
62.5
 20
56.5
 30
0.0
 11
62.5
 21
36.9772255751
 31
0.0
  0
LINE
  5
167
  8
0
  6
CONTINUOUS
 62
     7
 10
38.0
 20
32.0
 30
0.0
 11
57.5227744249
 21
32.0
 31
0.0
  0
LINE
  5
168
  8
0
  6
CONTINUOUS
 62
     7
 10
38.0
 20
31.0
 30
0.0
 11
38.0
 21
32.0
 31
0.0
  0
LINE
  5
169
  8
0
  6
CONTINUOUS
 62
     7
 10
38.0
 20
31.0
 30
0.0
 11
57.5227744249
 21
31.0
 31
0.0
  0
LINE
  5
16A
  8
0
  6
CONTINUOUS
 62
     7
 10
62.5
 20
26.0227744249
 30
0.0
 11
62.5
 21
6.5
 31
0.0
  0
LINE
  5
16B
  8
0
  6
CONTINUOUS
 62
     7
 10
63.5
 20
6.5
 30
0.0
 11
62.5
 21
6.5
 31
0.0
  0
LINE
  5
16C
  8
0
  6
CONTINUOUS
 62
     7
 10
63.5
 20
26.0227744249
 30
0.0
 11
63.5
 21
6.5
 31
0.0
  0
LINE
  5
16D
  8
0
  6
CONTINUOUS
 62
     7
 10
68.4772255751
 20
31.0
 30
0.0
 11
88.0
 21
31.0
 31
0.0
  0
LINE
  5
16E
  8
0
  6
CONTINUOUS
 62
     7
 10
88.0
 20
32.0
 30
0.0
 11
88.0
 21
31.0
 31
0.0
  0
LINE
  5
16F
  8
0
  6
CONTINUOUS
 62
     7
 10
68.4772255751
 20
32.0
 30
0.0
 11
88.0
 21
32.0
 31
0.0
  0
LINE
  5
170
  8
0
  6
CONTINUOUS
 62
     7
 10
63.5
 20
56.5
 30
0.0
 11
63.5
 21
36.9772255751
 31
0.0
  0
LINE
  5
171
  8
0
  6
CONTINUOUS
 62
     7
 10
-63.5
 20
-6.5
 30
0.0
 11
-62.5
 21
-6.5
 31
0.0
  0
LINE
  5
172
  8
0
  6
CONTINUOUS
 62
     7
 10
-63.5
 20
-6.5
 30
0.0
 11
-63.5
 21
-26.0227744249
 31
0.0
  0
LINE
  5
173
  8
0
  6
CONTINUOUS
 62
     7
 10
-88.0
 20
-31.0
 30
0.0
 11
-68.4772255751
 21
-31.0
 31
0.0
  0
LINE
  5
174
  8
0
  6
CONTINUOUS
 62
     7
 10
-88.0
 20
-32.0
 30
0.0
 11
-88.0
 21
-31.0
 31
0.0
  0
LINE
  5
175
  8
0
  6
CONTINUOUS
 62
     7
 10
-88.0
 20
-32.0
 30
0.0
 11
-68.4772255751
 21
-32.0
 31
0.0
  0
LINE
  5
176
  8
0
  6
CONTINUOUS
 62
     7
 10
-63.5
 20
-36.9772255751
 30
0.0
 11
-63.5
 21
-56.5
 31
0.0
  0
LINE
  5
177
  8
0
  6
CONTINUOUS
 62
     7
 10
-62.5
 20
-56.5
 30
0.0
 11
-63.5
 21
-56.5
 31
0.0
  0
LINE
  5
178
  8
0
  6
CONTINUOUS
 62
     7
 10
-62.5
 20
-36.9772255751
 30
0.0
 11
-62.5
 21
-56.5
 31
0.0
  0
LINE
  5
179
  8
0
  6
CONTINUOUS
 62
     7
 10
-57.5227744249
 20
-32.0
 30
0.0
 11
-38.0
 21
-32.0
 31
0.0
  0
LINE
  5
17A
  8
0
  6
CONTINUOUS
 62
     7
 10
-38.0
 20
-31.0
 30
0.0
 11
-38.0
 21
-32.0
 31
0.0
  0
LINE
  5
17B
  8
0
  6
CONTINUOUS
 62
     7
 10
-57.5227744249
 20
-31.0
 30
0.0
 11
-38.0
 21
-31.0
 31
0.0
  0
LINE
  5
17C
  8
0
  6
CONTINUOUS
 62
     7
 10
-62.5
 20
-6.5
 30
0.0
 11
-62.5
 21
-26.0227744249
 31
0.0
  0
LINE
  5
17D
  8
0
  6
CONTINUOUS
 62
     7
 10
-93.0
 20
51.5
 30
0.0
 11
-93.0
 21
-51.5
 31
0.0
  0
LINE
  5
17E
  8
0
  6
CONTINUOUS
 62
     7
 10
83.0
 20
61.5
 30
0.0
 11
-83.0
 21
61.5
 31
0.0
  0
LINE
  5
17F
  8
0
  6
CONTINUOUS
 62
     7
 10
93.0
 20
-51.5
 30
0.0
 11
93.0
 21
51.5
 31
0.0
  0
LINE
  5
180
  8
0
  6
CONTINUOUS
 62
     7
 10
-83.0
 20
-61.5
 30
0.0
 11
83.0
 21
-61.5
 31
0.0
  0
LINE
  5
181
  8
0
  6
CONTINUOUS
 62
     7
 10
-62.5
 20
56.5
 30
0.0
 11
-62.5
 21
36.9772255751
 31
0.0
  0
LINE
  5
182
  8
0
  6
CONTINUOUS
 62
     7
 10
-63.5
 20
56.5
 30
0.0
 11
-62.5
 21
56.5
 31
0.0
  0
LINE
  5
183
  8
0
  6
CONTINUOUS
 62
     7
 10
-63.5
 20
56.5
 30
0.0
 11
-63.5
 21
36.9772255751
 31
0.0
  0
LINE
  5
184
  8
0
  6
CONTINUOUS
 62
     7
 10
-88.0
 20
32.0
 30
0.0
 11
-68.4772255751
 21
32.0
 31
0.0
  0
LINE
  5
185
  8
0
  6
CONTINUOUS
 62
     7
 10
-88.0
 20
31.0
 30
0.0
 11
-88.0
 21
32.0
 31
0.0
  0
LINE
  5
186
  8
0
  6
CONTINUOUS
 62
     7
 10
-88.0
 20
31.0
 30
0.0
 11
-68.4772255751
 21
31.0
 31
0.0
  0
LINE
  5
187
  8
0
  6
CONTINUOUS
 62
     7
 10
-63.5
 20
26.0227744249
 30
0.0
 11
-63.5
 21
6.5
 31
0.0
  0
LINE
  5
188
  8
0
  6
CONTINUOUS
 62
     7
 10
-62.5
 20
6.5
 30
0.0
 11
-63.5
 21
6.5
 31
0.0
  0
LINE
  5
189
  8
0
  6
CONTINUOUS
 62
     7
 10
-62.5
 20
26.0227744249
 30
0.0
 11
-62.5
 21
6.5
 31
0.0
  0
LINE
  5
18A
  8
0
  6
CONTINUOUS
 62
     7
 10
-57.5227744249
 20
31.0
 30
0.0
 11
-38.0
 21
31.0
 31
0.0
  0
LINE
  5
18B
  8
0
  6
CONTINUOUS
 62
     7
 10
-38.0
 20
32.0
 30
0.0
 11
-38.0
 21
31.0
 31
0.0
  0
LINE
  5
18C
  8
0
  6
CONTINUOUS
 62
     7
 10
-57.5227744249
 20
32.0
 30
0.0
 11
-38.0
 21
32.0
 31
0.0
  0
LINE
  5
18D
  8
0
  6
CONTINUOUS
 62
     7
 10
63.5
 20
-36.9772255751
 30
0.0
 11
63.5
 21
-56.5
 31
0.0
  0
LINE
  5
18E
  8
0
  6
CONTINUOUS
 62
     7
 10
68.4772255751
 20
-32.0
 30
0.0
 11
88.0
 21
-32.0
 31
0.0
  0
LINE
  5
18F
  8
0
  6
CONTINUOUS
 62
     7
 10
88.0
 20
-31.0
 30
0.0
 11
88.0
 21
-32.0
 31
0.0
  0
LINE
  5
190
  8
0
  6
CONTINUOUS
 62
     7
 10
68.4772255751
 20
-31.0
 30
0.0
 11
88.0
 21
-31.0
 31
0.0
  0
LINE
  5
191
  8
0
  6
CONTINUOUS
 62
     7
 10
63.5
 20
-6.5
 30
0.0
 11
63.5
 21
-26.0227744249
 31
0.0
  0
LINE
  5
192
  8
0
  6
CONTINUOUS
 62
     7
 10
62.5
 20
-6.5
 30
0.0
 11
63.5
 21
-6.5
 31
0.0
  0
LINE
  5
193
  8
0
  6
CONTINUOUS
 62
     7
 10
62.5
 20
-6.5
 30
0.0
 11
62.5
 21
-26.0227744249
 31
0.0
  0
LINE
  5
194
  8
0
  6
CONTINUOUS
 62
     7
 10
38.0
 20
-31.0
 30
0.0
 11
57.5227744249
 21
-31.0
 31
0.0
  0
LINE
  5
195
  8
0
  6
CONTINUOUS
 62
     7
 10
38.0
 20
-32.0
 30
0.0
 11
38.0
 21
-31.0
 31
0.0
  0
LINE
  5
196
  8
0
  6
CONTINUOUS
 62
     7
 10
38.0
 20
-32.0
 30
0.0
 11
57.5227744249
 21
-32.0
 31
0.0
  0
LINE
  5
197
  8
0
  6
CONTINUOUS
 62
     7
 10
62.5
 20
-36.9772255751
 30
0.0
 11
62.5
 21
-56.5
 31
0.0
  0
LINE
  5
198
  8
0
  6
CONTINUOUS
 62
     7
 10
63.5
 20
-56.5
 30
0.0
 11
62.5
 21
-56.5
 31
0.0
  0
LINE
  5
199
  8
0
  6
CONTINUOUS
 62
     7
 10
0.5
 20
26.0227744249
 30
0.0
 11
0.5
 21
6.5
 31
0.0
  0
LINE
  5
19A
  8
0
  6
CONTINUOUS
 62
     7
 10
5.4772255751
 20
31.0
 30
0.0
 11
25.0
 21
31.0
 31
0.0
  0
LINE
  5
19B
  8
0
  6
CONTINUOUS
 62
     7
 10
25.0
 20
32.0
 30
0.0
 11
25.0
 21
31.0
 31
0.0
  0
LINE
  5
19C
  8
0
  6
CONTINUOUS
 62
     7
 10
5.4772255751
 20
32.0
 30
0.0
 11
25.0
 21
32.0
 31
0.0
  0
LINE
  5
19D
  8
0
  6
CONTINUOUS
 62
     7
 10
0.5
 20
56.5
 30
0.0
 11
0.5
 21
36.9772255751
 31
0.0
  0
LINE
  5
19E
  8
0
  6
CONTINUOUS
 62
     7
 10
-0.5
 20
56.5
 30
0.0
 11
0.5
 21
56.5
 31
0.0
  0
LINE
  5
19F
  8
0
  6
CONTINUOUS
 62
     7
 10
-0.5
 20
56.5
 30
0.0
 11
-0.5
 21
36.9772255751
 31
0.0
  0
LINE
  5
1A0
  8
0
  6
CONTINUOUS
 62
     7
 10
-25.0
 20
32.0
 30
0.0
 11
-5.4772255751
 21
32.0
 31
0.0
  0
LINE
  5
1A1
  8
0
  6
CONTINUOUS
 62
     7
 10
-25.0
 20
31.0
 30
0.0
 11
-25.0
 21
32.0
 31
0.0
  0
LINE
  5
1A2
  8
0
  6
CONTINUOUS
 62
     7
 10
-25.0
 20
31.0
 30
0.0
 11
-5.4772255751
 21
31.0
 31
0.0
  0
LINE
  5
1A3
  8
0
  6
CONTINUOUS
 62
     7
 10
-0.5
 20
26.0227744249
 30
0.0
 11
-0.5
 21
6.5
 31
0.0
  0
LINE
  5
1A4
  8
0
  6
CONTINUOUS
 62
     7
 10
0.5
 20
6.5
 30
0.0
 11
-0.5
 21
6.5
 31
0.0
  0
LINE
  5
1A5
  8
0
  6
CONTINUOUS
 62
     7
 10
-63.5
 20
31.0
 30
0.0
 11
-63.5
 21
27.027864045
 31
0.0
  0
LINE
  5
1A6
  8
0
  6
CONTINUOUS
 62
     7
 10
-67.472135955
 20
31.0
 30
0.0
 11
-63.5
 21
31.0
 31
0.0
  0
LINE
  5
1A7
  8
0
  6
CONTINUOUS
 62
     7
 10
-62.5
 20
31.0
 30
0.0
 11
-62.5
 21
27.027864045
 31
0.0
  0
LINE
  5
1A8
  8
0
  6
CONTINUOUS
 62
     7
 10
-62.5
 20
31.0
 30
0.0
 11
-58.527864045
 21
31.0
 31
0.0
  0
LINE
  5
1A9
  8
0
  6
CONTINUOUS
 62
     7
 10
-63.5
 20
35.972135955
 30
0.0
 11
-63.5
 21
32.0
 31
0.0
  0
LINE
  5
1AA
  8
0
  6
CONTINUOUS
 62
     7
 10
-67.472135955
 20
32.0
 30
0.0
 11
-63.5
 21
32.0
 31
0.0
  0
LINE
  5
1AB
  8
0
  6
CONTINUOUS
 62
     7
 10
-62.5
 20
35.972135955
 30
0.0
 11
-62.5
 21
32.0
 31
0.0
  0
LINE
  5
1AC
  8
0
  6
CONTINUOUS
 62
     7
 10
-62.5
 20
32.0
 30
0.0
 11
-58.527864045
 21
32.0
 31
0.0
  0
LINE
  5
1AD
  8
0
  6
CONTINUOUS
 62
     7
 10
-62.5
 20
-32.0
 30
0.0
 11
-62.5
 21
-35.972135955
 31
0.0
  0
LINE
  5
1AE
  8
0
  6
CONTINUOUS
 62
     7
 10
-62.5
 20
-32.0
 30
0.0
 11
-58.527864045
 21
-32.0
 31
0.0
  0
LINE
  5
1AF
  8
0
  6
CONTINUOUS
 62
     7
 10
-63.5
 20
-27.027864045
 30
0.0
 11
-63.5
 21
-31.0
 31
0.0
  0
LINE
  5
1B0
  8
0
  6
CONTINUOUS
 62
     7
 10
-67.472135955
 20
-31.0
 30
0.0
 11
-63.5
 21
-31.0
 31
0.0
  0
LINE
  5
1B1
  8
0
  6
CONTINUOUS
 62
     7
 10
-62.5
 20
-27.027864045
 30
0.0
 11
-62.5
 21
-31.0
 31
0.0
  0
LINE
  5
1B2
  8
0
  6
CONTINUOUS
 62
     7
 10
-62.5
 20
-31.0
 30
0.0
 11
-58.527864045
 21
-31.0
 31
0.0
  0
LINE
  5
1B3
  8
0
  6
CONTINUOUS
 62
     7
 10
-63.5
 20
-32.0
 30
0.0
 11
-63.5
 21
-35.972135955
 31
0.0
  0
LINE
  5
1B4
  8
0
  6
CONTINUOUS
 62
     7
 10
-67.472135955
 20
-32.0
 30
0.0
 11
-63.5
 21
-32.0
 31
0.0
  0
LINE
  5
1B5
  8
0
  6
CONTINUOUS
 62
     7
 10
-4.472135955
 20
31.0
 30
0.0
 11
-0.5
 21
31.0
 31
0.0
  0
LINE
  5
1B6
  8
0
  6
CONTINUOUS
 62
     7
 10
-0.5
 20
31.0
 30
0.0
 11
-0.5
 21
27.027864045
 31
0.0
  0
LINE
  5
1B7
  8
0
  6
CONTINUOUS
 62
     7
 10
0.5
 20
35.972135955
 30
0.0
 11
0.5
 21
32.0
 31
0.0
  0
LINE
  5
1B8
  8
0
  6
CONTINUOUS
 62
     7
 10
0.5
 20
32.0
 30
0.0
 11
4.472135955
 21
32.0
 31
0.0
  0
LINE
  5
1B9
  8
0
  6
CONTINUOUS
 62
     7
 10
63.5
 20
31.0
 30
0.0
 11
63.5
 21
27.027864045
 31
0.0
  0
LINE
  5
1BA
  8
0
  6
CONTINUOUS
 62
     7
 10
63.5
 20
31.0
 30
0.0
 11
67.472135955
 21
31.0
 31
0.0
  0
LINE
  5
1BB
  8
0
  6
CONTINUOUS
 62
     7
 10
62.5
 20
35.972135955
 30
0.0
 11
62.5
 21
32.0
 31
0.0
  0
LINE
  5
1BC
  8
0
  6
CONTINUOUS
 62
     7
 10
58.527864045
 20
32.0
 30
0.0
 11
62.5
 21
32.0
 31
0.0
  0
LINE
  5
1BD
  8
0
  6
CONTINUOUS
 62
     7
 10
63.5
 20
35.972135955
 30
0.0
 11
63.5
 21
32.0
 31
0.0
  0
LINE
  5
1BE
  8
0
  6
CONTINUOUS
 62
     7
 10
63.5
 20
32.0
 30
0.0
 11
67.472135955
 21
32.0
 31
0.0
  0
LINE
  5
1BF
  8
0
  6
CONTINUOUS
 62
     7
 10
62.5
 20
31.0
 30
0.0
 11
62.5
 21
27.027864045
 31
0.0
  0
LINE
  5
1C0
  8
0
  6
CONTINUOUS
 62
     7
 10
58.527864045
 20
31.0
 30
0.0
 11
62.5
 21
31.0
 31
0.0
  0
LINE
  5
1C1
  8
0
  6
CONTINUOUS
 62
     7
 10
-0.5
 20
35.972135955
 30
0.0
 11
-0.5
 21
32.0
 31
0.0
  0
LINE
  5
1C2
  8
0
  6
CONTINUOUS
 62
     7
 10
-4.472135955
 20
32.0
 30
0.0
 11
-0.5
 21
32.0
 31
0.0
  0
LINE
  5
1C3
  8
0
  6
CONTINUOUS
 62
     7
 10
0.5
 20
31.0
 30
0.0
 11
0.5
 21
27.027864045
 31
0.0
  0
LINE
  5
1C4
  8
0
  6
CONTINUOUS
 62
     7
 10
0.5
 20
31.0
 30
0.0
 11
4.472135955
 21
31.0
 31
0.0
  0
LINE
  5
1C5
  8
0
  6
CONTINUOUS
 62
     7
 10
62.5
 20
-27.027864045
 30
0.0
 11
62.5
 21
-31.0
 31
0.0
  0
LINE
  5
1C6
  8
0
  6
CONTINUOUS
 62
     7
 10
58.527864045
 20
-31.0
 30
0.0
 11
62.5
 21
-31.0
 31
0.0
  0
LINE
  5
1C7
  8
0
  6
CONTINUOUS
 62
     7
 10
62.5
 20
-32.0
 30
0.0
 11
62.5
 21
-35.972135955
 31
0.0
  0
LINE
  5
1C8
  8
0
  6
CONTINUOUS
 62
     7
 10
58.527864045
 20
-32.0
 30
0.0
 11
62.5
 21
-32.0
 31
0.0
  0
LINE
  5
1C9
  8
0
  6
CONTINUOUS
 62
     7
 10
63.5
 20
-32.0
 30
0.0
 11
63.5
 21
-35.972135955
 31
0.0
  0
LINE
  5
1CA
  8
0
  6
CONTINUOUS
 62
     7
 10
63.5
 20
-32.0
 30
0.0
 11
67.472135955
 21
-32.0
 31
0.0
  0
LINE
  5
1CB
  8
0
  6
CONTINUOUS
 62
     7
 10
63.5
 20
-31.0
 30
0.0
 11
67.472135955
 21
-31.0
 31
0.0
  0
LINE
  5
1CC
  8
0
  6
CONTINUOUS
 62
     7
 10
63.5
 20
-27.027864045
 30
0.0
 11
63.5
 21
-31.0
 31
0.0
  0
LINE
  5
1CD
  8
0
  6
CONTINUOUS
 62
     7
 10
0.5
 20
-32.0
 30
0.0
 11
4.472135955
 21
-32.0
 31
0.0
  0
LINE
  5
1CE
  8
0
  6
CONTINUOUS
 62
     7
 10
0.5
 20
-32.0
 30
0.0
 11
0.5
 21
-35.972135955
 31
0.0
  0
LINE
  5
1CF
  8
0
  6
CONTINUOUS
 62
     7
 10
-0.5
 20
-27.027864045
 30
0.0
 11
-0.5
 21
-31.0
 31
0.0
  0
LINE
  5
1D0
  8
0
  6
CONTINUOUS
 62
     7
 10
-4.472135955
 20
-31.0
 30
0.0
 11
-0.5
 21
-31.0
 31
0.0
  0
LINE
  5
1D1
  8
0
  6
CONTINUOUS
 62
     7
 10
-0.5
 20
-32.0
 30
0.0
 11
-0.5
 21
-35.972135955
 31
0.0
  0
LINE
  5
1D2
  8
0
  6
CONTINUOUS
 62
     7
 10
-4.472135955
 20
-32.0
 30
0.0
 11
-0.5
 21
-32.0
 31
0.0
  0
LINE
  5
1D3
  8
0
  6
CONTINUOUS
 62
     7
 10
0.5
 20
-27.027864045
 30
0.0
 11
0.5
 21
-31.0
 31
0.0
  0
LINE
  5
1D4
  8
0
  6
CONTINUOUS
 62
     7
 10
0.5
 20
-31.0
 30
0.0
 11
4.472135955
 21
-31.0
 31
0.0
  0
ARC
  5
1D5
  8
0
  6
CONTINUOUS
 62
     7
 10
0.0
 20
-31.5
 30
0.0
 40
5.500000000000012
 50
95.2159085705
 51
174.7840914295
  0
ARC
  5
1D6
  8
0
  6
CONTINUOUS
 62
     7
 10
0.0
 20
-31.5
 30
0.0
 40
5.500000000000012
 50
185.2159085705
 51
264.7840914295
  0
ARC
  5
1D7
  8
0
  6
CONTINUOUS
 62
     7
 10
0.0
 20
-31.5
 30
0.0
 40
5.5
 50
275.2159085705
 51
354.7840914295
  0
ARC
  5
1D8
  8
0
  6
CONTINUOUS
 62
     7
 10
0.0
 20
-31.5
 30
0.0
 40
5.500000000000017
 50
5.2159085705
 51
84.7840914295
  0
ARC
  5
1D9
  8
0
  6
CONTINUOUS
 62
     7
 10
63.0
 20
31.5
 30
0.0
 40
5.500000000000015
 50
95.2159085705
 51
174.7840914295
  0
ARC
  5
1DA
  8
0
  6
CONTINUOUS
 62
     7
 10
63.0
 20
31.5
 30
0.0
 40
5.500000000000009
 50
185.2159085705
 51
264.7840914295
  0
ARC
  5
1DB
  8
0
  6
CONTINUOUS
 62
     7
 10
63.0
 20
31.5
 30
0.0
 40
5.499999999999993
 50
275.2159085705
 51
354.7840914295
  0
ARC
  5
1DC
  8
0
  6
CONTINUOUS
 62
     7
 10
63.0
 20
31.5
 30
0.0
 40
5.499999999999993
 50
5.2159085705
 51
84.7840914295
  0
ARC
  5
1DD
  8
0
  6
CONTINUOUS
 62
     7
 10
-63.0
 20
-31.5
 30
0.0
 40
5.499999999999994
 50
95.2159085705
 51
174.7840914295
  0
ARC
  5
1DE
  8
0
  6
CONTINUOUS
 62
     7
 10
-63.0
 20
-31.5
 30
0.0
 40
5.500000000000031
 50
185.2159085705
 51
264.7840914295
  0
ARC
  5
1DF
  8
0
  6
CONTINUOUS
 62
     7
 10
-63.0
 20
-31.5
 30
0.0
 40
5.500000000000012
 50
275.2159085705
 51
354.7840914295
  0
ARC
  5
1E0
  8
0
  6
CONTINUOUS
 62
     7
 10
-63.0
 20
-31.5
 30
0.0
 40
5.500000000000016
 50
5.2159085705
 51
84.7840914295
  0
ARC
  5
1E1
  8
0
  6
CONTINUOUS
 62
     7
 10
-83.0
 20
51.5
 30
0.0
 40
10.00000000000003
 50
90.0
 51
180.0
  0
ARC
  5
1E2
  8
0
  6
CONTINUOUS
 62
     7
 10
83.0
 20
51.5
 30
0.0
 40
10.00000000000001
 50
0.0
 51
90.0
  0
ARC
  5
1E3
  8
0
  6
CONTINUOUS
 62
     7
 10
83.0
 20
-51.5
 30
0.0
 40
10.00000000000004
 50
270.0
 51
0.0
  0
ARC
  5
1E4
  8
0
  6
CONTINUOUS
 62
     7
 10
-83.0
 20
-51.5
 30
0.0
 40
10.00000000000009
 50
180.0
 51
270.0
  0
ARC
  5
1E5
  8
0
  6
CONTINUOUS
 62
     7
 10
-63.0
 20
31.5
 30
0.0
 40
5.500000000000022
 50
5.2159085705
 51
84.7840914295
  0
ARC
  5
1E6
  8
0
  6
CONTINUOUS
 62
     7
 10
-63.0
 20
31.5
 30
0.0
 40
5.499999999999965
 50
95.2159085705
 51
174.7840914295
  0
ARC
  5
1E7
  8
0
  6
CONTINUOUS
 62
     7
 10
-63.0
 20
31.5
 30
0.0
 40
5.500000000000017
 50
185.2159085705
 51
264.7840914295
  0
ARC
  5
1E8
  8
0
  6
CONTINUOUS
 62
     7
 10
-63.0
 20
31.5
 30
0.0
 40
5.500000000000024
 50
275.2159085705
 51
354.7840914295
  0
ARC
  5
1E9
  8
0
  6
CONTINUOUS
 62
     7
 10
63.0
 20
-31.5
 30
0.0
 40
5.49999999999998
 50
275.2159085705
 51
354.7840914295
  0
ARC
  5
1EA
  8
0
  6
CONTINUOUS
 62
     7
 10
63.0
 20
-31.5
 30
0.0
 40
5.5
 50
5.2159085705
 51
84.7840914295
  0
ARC
  5
1EB
  8
0
  6
CONTINUOUS
 62
     7
 10
63.0
 20
-31.5
 30
0.0
 40
5.50000000000002
 50
95.2159085705
 51
174.7840914295
  0
ARC
  5
1EC
  8
0
  6
CONTINUOUS
 62
     7
 10
63.0
 20
-31.5
 30
0.0
 40
5.500000000000008
 50
185.2159085705
 51
264.7840914295
  0
ARC
  5
1ED
  8
0
  6
CONTINUOUS
 62
     7
 10
0.0
 20
31.5
 30
0.0
 40
5.500000000000015
 50
275.2159085705
 51
354.7840914295
  0
ARC
  5
1EE
  8
0
  6
CONTINUOUS
 62
     7
 10
0.0
 20
31.5
 30
0.0
 40
5.500000000000012
 50
5.2159085705
 51
84.7840914295
  0
ARC
  5
1EF
  8
0
  6
CONTINUOUS
 62
     7
 10
0.0
 20
31.5
 30
0.0
 40
5.499999999999996
 50
95.2159085705
 51
174.7840914295
  0
ARC
  5
1F0
  8
0
  6
CONTINUOUS
 62
     7
 10
0.0
 20
31.5
 30
0.0
 40
5.500000000000016
 50
185.2159085705
 51
264.7840914295
  0
ARC
  5
1F1
  8
0
  6
CONTINUOUS
 62
     7
 10
-31.5
 20
-51.5
 30
0.0
 40
1.397000000000004
 50
66.1232549722
 51
265.7958330863
  0
ARC
  5
1F2
  8
0
  6
CONTINUOUS
 62
     7
 10
-31.0369507267
 20
-51.6157984911
 30
0.0
 40
1.396999999999995
 50
246.1232549722
 51
85.7958330864
  0
ARC
  5
1F3
  8
0
  6
CONTINUOUS
 62
     7
 10
-63.0
 20
31.5
 30
0.0
 40
4.500000000000009
 50
186.3793702084
 51
263.6206297916
  0
ARC
  5
1F4
  8
0
  6
CONTINUOUS
 62
     7
 10
-63.0
 20
31.5
 30
0.0
 40
4.499999999999996
 50
276.3793702084
 51
353.6206297916
  0
ARC
  5
1F5
  8
0
  6
CONTINUOUS
 62
     7
 10
-63.0
 20
31.5
 30
0.0
 40
4.50000000000003
 50
96.3793702084
 51
173.6206297916
  0
ARC
  5
1F6
  8
0
  6
CONTINUOUS
 62
     7
 10
-63.0
 20
31.5
 30
0.0
 40
4.499999999999982
 50
6.3793702084
 51
83.6206297916
  0
ARC
  5
1F7
  8
0
  6
CONTINUOUS
 62
     7
 10
-63.0
 20
-31.5
 30
0.0
 40
4.5
 50
276.3793702084
 51
353.6206297916
  0
ARC
  5
1F8
  8
0
  6
CONTINUOUS
 62
     7
 10
-63.0
 20
-31.5
 30
0.0
 40
4.500000000000006
 50
96.3793702084
 51
173.6206297916
  0
ARC
  5
1F9
  8
0
  6
CONTINUOUS
 62
     7
 10
-63.0
 20
-31.5
 30
0.0
 40
4.499999999999999
 50
6.3793702084
 51
83.6206297916
  0
ARC
  5
1FA
  8
0
  6
CONTINUOUS
 62
     7
 10
-63.0
 20
-31.5
 30
0.0
 40
4.499999999999977
 50
186.3793702084
 51
263.6206297916
  0
ARC
  5
1FB
  8
0
  6
CONTINUOUS
 62
     7
 10
0.0
 20
31.5
 30
0.0
 40
4.500000000000001
 50
186.3793702084
 51
263.6206297916
  0
ARC
  5
1FC
  8
0
  6
CONTINUOUS
 62
     7
 10
0.0
 20
31.5
 30
0.0
 40
4.499999999999988
 50
6.3793702084
 51
83.6206297916
  0
ARC
  5
1FD
  8
0
  6
CONTINUOUS
 62
     7
 10
63.0
 20
31.5
 30
0.0
 40
4.500000000000028
 50
276.3793702084
 51
353.6206297916
  0
ARC
  5
1FE
  8
0
  6
CONTINUOUS
 62
     7
 10
63.0
 20
31.5
 30
0.0
 40
4.499999999999998
 50
96.3793702084
 51
173.6206297916
  0
ARC
  5
1FF
  8
0
  6
CONTINUOUS
 62
     7
 10
63.0
 20
31.5
 30
0.0
 40
4.500000000000023
 50
6.3793702084
 51
83.6206297916
  0
ARC
  5
200
  8
0
  6
CONTINUOUS
 62
     7
 10
63.0
 20
31.5
 30
0.0
 40
4.500000000000015
 50
186.3793702084
 51
263.6206297916
  0
ARC
  5
201
  8
0
  6
CONTINUOUS
 62
     7
 10
0.0
 20
31.5
 30
0.0
 40
4.500000000000007
 50
96.3793702084
 51
173.6206297916
  0
ARC
  5
202
  8
0
  6
CONTINUOUS
 62
     7
 10
0.0
 20
31.5
 30
0.0
 40
4.499999999999996
 50
276.3793702084
 51
353.6206297916
  0
ARC
  5
203
  8
0
  6
CONTINUOUS
 62
     7
 10
63.0
 20
-31.5
 30
0.0
 40
4.500000000000023
 50
96.3793702084
 51
173.6206297916
  0
ARC
  5
204
  8
0
  6
CONTINUOUS
 62
     7
 10
63.0
 20
-31.5
 30
0.0
 40
4.499999999999984
 50
186.3793702084
 51
263.6206297916
  0
ARC
  5
205
  8
0
  6
CONTINUOUS
 62
     7
 10
63.0
 20
-31.5
 30
0.0
 40
4.50000000000002
 50
276.3793702084
 51
353.6206297916
  0
ARC
  5
206
  8
0
  6
CONTINUOUS
 62
     7
 10
63.0
 20
-31.5
 30
0.0
 40
4.500000000000023
 50
6.3793702084
 51
83.6206297916
  0
ARC
  5
207
  8
0
  6
CONTINUOUS
 62
     7
 10
0.0
 20
-31.5
 30
0.0
 40
4.500000000000004
 50
276.3793702084
 51
353.6206297916
  0
ARC
  5
208
  8
0
  6
CONTINUOUS
 62
     7
 10
0.0
 20
-31.5
 30
0.0
 40
4.500000000000001
 50
96.3793702084
 51
173.6206297916
  0
ARC
  5
209
  8
0
  6
CONTINUOUS
 62
     7
 10
0.0
 20
-31.5
 30
0.0
 40
4.499999999999993
 50
186.3793702084
 51
263.6206297916
  0
ARC
  5
20A
  8
0
  6
CONTINUOUS
 62
     7
 10
0.0
 20
-31.5
 30
0.0
 40
4.500000000000004
 50
6.3793702084
 51
83.6206297916
  0
TEXT
  5
20B
  8
0
  6
CONTINUOUS
 62
     7
 10
-93.0
 20
-67.0429050995
 30
0.0
 40
4.83362
  1
SOLIDWORKS Educational Product.
 41
0.6774193548
 11
-93.0
 21
-68.75043
 31
0.0
 73
     1
  0
TEXT
  5
20C
  8
0
  6
CONTINUOUS
 62
     7
 10
-93.0
 20
-74.2933350995
 30
0.0
 40
4.83362
  1
For Instructional Use Only.
 41
0.6611111111
 11
-93.0
 21
-76.00086
 31
0.0
 73
     1
  0
ENDSEC
  0
EOF
